<svg width="800" height="800" viewBox="0 0 800 800" fill="none" xmlns="http://www.w3.org/2000/svg">
<path d="M221 124H571C601.4 124 626 148.6 626 179V623C626 653.4 601.4 678 571 678H221C190.6 678 166 653.4 166 623V179C166 148.6 190.6 124 221 124Z" fill="#262626"/>
<path d="M373 118H427C431.4 118 435 121.6 435 126V144C435 148.4 431.4 152 427 152H373C368.6 152 365 148.4 365 144V126C365 121.6 368.6 118 373 118Z" fill="#545454"/>
<path d="M248 118H302C306.4 118 310 121.6 310 126V144C310 148.4 306.4 152 302 152H248C243.6 152 240 148.4 240 144V126C240 121.6 243.6 118 248 118Z" fill="#545454"/>
<path d="M498 118H552C556.4 118 560 121.6 560 126V144C560 148.4 556.4 152 552 152H498C493.6 152 490 148.4 490 144V126C490 121.6 493.6 118 498 118Z" fill="#545454"/>
<path d="M234 351H558C562.4 351 566 354.6 566 359V376C566 380.4 562.4 384 558 384H234C229.6 384 226 380.4 226 376V359C226 354.6 229.6 351 234 351Z" fill="#545454"/>
<path d="M234 285H558C562.4 285 566 288.6 566 293V310C566 314.4 562.4 318 558 318H234C229.6 318 226 314.4 226 310V293C226 288.6 229.6 285 234 285Z" fill="#545454"/>
<path d="M234 417H558C562.4 417 566 420.6 566 425V442C566 446.4 562.4 450 558 450H234C229.6 450 226 446.4 226 442V425C226 420.6 229.6 417 234 417Z" fill="#545454"/>
<path d="M231.671 483H461.329C464.448 483 467 486.6 467 491V508C467 512.4 464.448 516 461.329 516H231.671C228.552 516 226 512.4 226 508V491C226 486.6 228.552 483 231.671 483Z" fill="#545454"/>
</svg>
